# xmcd
#
# Track frame offsets:
#	150
#	13978
#	30250
#	48011
#	62172
#	82704
#	97846
#	112614
#	134543
#	153562
#	176435
#	195883
#
# Disc length: 2885 seconds
#
# Revision: 1
# Processed by: cddbd v1.5.2PL0 Copyright (c) Steve Scherf et al.
# Submitted via: audiograbber 1.83.01
#
DISCID=7e0b430c
DTITLE=Seiler und Speer - und weida?
DYEAR=2016
DGENRE=Austro-Pop
TTITLE0=i was made
TTITLE1=Cabrio
TTITLE2=foin
TTITLE3=Madl moch die Augen auf
TTITLE4=i kenn di vo wo
TTITLE5=Leich in da Donau
TTITLE6=Weck mi auf
TTITLE7=Mon amour
TTITLE8=Mama sperrr die Kinda weg
TTITLE9=A letztes Schluckerl
TTITLE10=All inklusive
TTITLE11=Schatzi
EXTD=
EXTT0=
EXTT1=
EXTT2=
EXTT3=
EXTT4=
EXTT5=
EXTT6=
EXTT7=
EXTT8=
EXTT9=
EXTT10=
EXTT11=
PLAYORDER=
